<svg width="18" height="16" viewBox="0 0 18 16" fill="none" xmlns="http://www.w3.org/2000/svg">
<path d="M16.496 0.135808L4.49602 7.13581C4.34495 7.22384 4.2196 7.34995 4.13248 7.50156C4.04536 7.65316 3.99951 7.82496 3.99951 7.99981C3.99951 8.17466 4.04536 8.34646 4.13248 8.49806C4.2196 8.64966 4.34495 8.77577 4.49602 8.86381L16.496 15.8638C16.648 15.9525 16.8207 15.9995 16.9966 16.0001C17.1726 16.0007 17.3456 15.9549 17.4981 15.8672C17.6507 15.7796 17.7775 15.6532 17.8656 15.5009C17.9537 15.3486 18.0001 15.1758 18 14.9998V0.999808C18.0001 0.823854 17.9537 0.651002 17.8656 0.498703C17.7775 0.346405 17.6507 0.220053 17.4981 0.132406C17.3456 0.0447591 17.1726 -0.00107983 16.9966 -0.000482518C16.8207 0.00011479 16.648 0.0471275 16.496 0.135808Z" fill="#343434"/>
<path d="M1 -0.000190735C1.24493 -0.000158424 1.48134 0.0897652 1.66437 0.252524C1.84741 0.415284 1.96434 0.639558 1.993 0.882809L2 0.999809V14.9998C1.99972 15.2547 1.90212 15.4998 1.72715 15.6852C1.55218 15.8705 1.31305 15.982 1.05861 15.997C0.804163 16.0119 0.553621 15.9291 0.358167 15.7655C0.162714 15.602 0.0371036 15.3699 0.00699997 15.1168L0 14.9998V0.999809C0 0.734593 0.105357 0.480239 0.292893 0.292703C0.48043 0.105166 0.734784 -0.000190735 1 -0.000190735Z" fill="#343434"/>
</svg>
