<svg width="20" height="19" viewBox="0 0 20 19" fill="none" xmlns="http://www.w3.org/2000/svg">
<path d="M4.5 7L1.5 4M1.5 4L4.5 1M1.5 4H12.5C14.0026 4.00383 15.4491 4.5711 16.5536 5.58974C17.6582 6.60838 18.3406 8.00428 18.4658 9.50163C18.5911 10.999 18.1502 12.4888 17.2302 13.6769C16.3102 14.8649 14.9781 15.6646 13.497 15.918M3.5 12V18M6.5 13.5V16.5C6.5 16.8978 6.65804 17.2794 6.93934 17.5607C7.22064 17.842 7.60218 18 8 18C8.39782 18 8.77936 17.842 9.06066 17.5607C9.34196 17.2794 9.5 16.8978 9.5 16.5V13.5C9.5 13.1022 9.34196 12.7206 9.06066 12.4393C8.77936 12.158 8.39782 12 8 12C7.60218 12 7.22064 12.158 6.93934 12.4393C6.65804 12.7206 6.5 13.1022 6.5 13.5Z" stroke="#343434" stroke-width="1.5" stroke-linecap="round" stroke-linejoin="round"/>
</svg>
