<svg width="13" height="15" viewBox="0 0 13 15" fill="none" xmlns="http://www.w3.org/2000/svg">
<path d="M12.1666 3.25008C12.3472 3.25028 12.5208 3.31941 12.6521 3.44335C12.7834 3.56729 12.8624 3.73667 12.8729 3.9169C12.8835 4.09713 12.8249 4.2746 12.709 4.41305C12.5931 4.55149 12.4288 4.64047 12.2495 4.66179L12.1666 4.66675H12.1092L11.4583 12.4584C11.4583 13.0004 11.2512 13.522 10.8794 13.9163C10.5075 14.3107 9.99904 14.5481 9.45795 14.5799L9.33328 14.5834H3.66661C2.5347 14.5834 1.60961 13.6987 1.54728 12.6355L1.54374 12.5172L0.889948 4.66675H0.833281C0.652741 4.66655 0.479092 4.59742 0.347812 4.47348C0.216532 4.34954 0.137531 4.18016 0.126951 3.99993C0.11637 3.8197 0.175009 3.64223 0.290885 3.50378C0.406762 3.36534 0.57113 3.27636 0.750406 3.25504L0.833281 3.25008H12.1666ZM5.44524 6.89092C5.29683 6.80257 5.12126 6.77149 4.95154 6.80353C4.78182 6.83556 4.62966 6.9285 4.52366 7.06487C4.41767 7.20123 4.36515 7.37163 4.37598 7.544C4.38682 7.71638 4.46026 7.87885 4.58249 8.00087L5.49766 8.91675L4.58249 9.83262L4.5237 9.89921C4.41361 10.0416 4.36185 10.2205 4.37891 10.3997C4.39598 10.5788 4.4806 10.7448 4.61558 10.8638C4.75057 10.9828 4.9258 11.046 5.10568 11.0405C5.28556 11.035 5.4566 10.9612 5.58407 10.8342L6.49995 9.91904L7.41582 10.8342L7.48241 10.893C7.62477 11.0031 7.80371 11.0548 7.98286 11.0378C8.16201 11.0207 8.32796 10.9361 8.44698 10.8011C8.566 10.6661 8.62918 10.4909 8.62369 10.311C8.6182 10.1311 8.54444 9.96009 8.41741 9.83262L7.50224 8.91675L8.41741 8.00087L8.4762 7.93429C8.58628 7.79192 8.63805 7.61299 8.62098 7.43383C8.60391 7.25468 8.51929 7.08874 8.38431 6.96972C8.24933 6.85069 8.0741 6.78751 7.89422 6.793C7.71434 6.7985 7.54329 6.87225 7.41582 6.99929L6.49995 7.91446L5.58407 6.99929L5.51749 6.9405L5.44524 6.89092Z" fill="#FF2B2B"/>
<path d="M7.91671 0.416748C8.29243 0.416748 8.65277 0.566004 8.91844 0.83168C9.18412 1.09736 9.33337 1.45769 9.33337 1.83341C9.33317 2.01395 9.26404 2.1876 9.14011 2.31888C9.01617 2.45016 8.84678 2.52916 8.66655 2.53974C8.48632 2.55033 8.30886 2.49169 8.17041 2.37581C8.03196 2.25993 7.94299 2.09557 7.92167 1.91629L7.91671 1.83341H5.08337L5.07842 1.91629C5.05709 2.09557 4.96812 2.25993 4.82967 2.37581C4.69123 2.49169 4.51376 2.55033 4.33353 2.53974C4.1533 2.52916 3.98391 2.45016 3.85997 2.31888C3.73604 2.1876 3.66691 2.01395 3.66671 1.83341C3.66659 1.47601 3.80158 1.13176 4.0446 0.869693C4.28762 0.607623 4.62072 0.447095 4.97712 0.42029L5.08337 0.416748H7.91671Z" fill="#FF2B2B"/>
<path d="M12.1666 3.25008C12.3472 3.25028 12.5208 3.31941 12.6521 3.44335C12.7834 3.56729 12.8624 3.73667 12.8729 3.9169C12.8835 4.09713 12.8249 4.2746 12.709 4.41305C12.5931 4.55149 12.4288 4.64047 12.2495 4.66179L12.1666 4.66675H12.1092L11.4583 12.4584C11.4583 13.0004 11.2512 13.522 10.8794 13.9163C10.5075 14.3107 9.99904 14.5481 9.45795 14.5799L9.33328 14.5834H3.66661C2.5347 14.5834 1.60961 13.6987 1.54728 12.6355L1.54374 12.5172L0.889948 4.66675H0.833281C0.652741 4.66655 0.479092 4.59742 0.347812 4.47348C0.216532 4.34954 0.137531 4.18016 0.126951 3.99993C0.11637 3.8197 0.175009 3.64223 0.290885 3.50378C0.406762 3.36534 0.57113 3.27636 0.750406 3.25504L0.833281 3.25008H12.1666ZM5.44524 6.89092C5.29683 6.80257 5.12126 6.77149 4.95154 6.80353C4.78182 6.83556 4.62966 6.9285 4.52366 7.06487C4.41767 7.20123 4.36515 7.37163 4.37598 7.544C4.38682 7.71638 4.46026 7.87885 4.58249 8.00087L5.49766 8.91675L4.58249 9.83262L4.5237 9.89921C4.41361 10.0416 4.36185 10.2205 4.37891 10.3997C4.39598 10.5788 4.4806 10.7448 4.61558 10.8638C4.75057 10.9828 4.9258 11.046 5.10568 11.0405C5.28556 11.035 5.4566 10.9612 5.58407 10.8342L6.49995 9.91904L7.41582 10.8342L7.48241 10.893C7.62477 11.0031 7.80371 11.0548 7.98286 11.0378C8.16201 11.0207 8.32796 10.9361 8.44698 10.8011C8.566 10.6661 8.62918 10.4909 8.62369 10.311C8.6182 10.1311 8.54444 9.96009 8.41741 9.83262L7.50224 8.91675L8.41741 8.00087L8.4762 7.93429C8.58628 7.79192 8.63805 7.61299 8.62098 7.43383C8.60391 7.25468 8.51929 7.08874 8.38431 6.96972C8.24933 6.85069 8.0741 6.78751 7.89422 6.793C7.71434 6.7985 7.54329 6.87225 7.41582 6.99929L6.49995 7.91446L5.58407 6.99929L5.51749 6.9405L5.44524 6.89092Z" stroke="#FF2B2B"/>
<path d="M7.91671 0.416748C8.29243 0.416748 8.65277 0.566004 8.91844 0.83168C9.18412 1.09736 9.33337 1.45769 9.33337 1.83341C9.33317 2.01395 9.26404 2.1876 9.14011 2.31888C9.01617 2.45016 8.84678 2.52916 8.66655 2.53974C8.48632 2.55033 8.30886 2.49169 8.17041 2.37581C8.03196 2.25993 7.94299 2.09557 7.92167 1.91629L7.91671 1.83341H5.08337L5.07842 1.91629C5.05709 2.09557 4.96812 2.25993 4.82967 2.37581C4.69123 2.49169 4.51376 2.55033 4.33353 2.53974C4.1533 2.52916 3.98391 2.45016 3.85997 2.31888C3.73604 2.1876 3.66691 2.01395 3.66671 1.83341C3.66659 1.47601 3.80158 1.13176 4.0446 0.869693C4.28762 0.607623 4.62072 0.447095 4.97712 0.42029L5.08337 0.416748H7.91671Z" stroke="#FF2B2B"/>
</svg>
