<svg width="39" height="38" viewBox="0 0 39 38" fill="none" xmlns="http://www.w3.org/2000/svg">
<path d="M17.5 19C17.5 19.5304 17.7107 20.0391 18.0858 20.4142C18.4609 20.7893 18.9696 21 19.5 21C20.0304 21 20.5391 20.7893 20.9142 20.4142C21.2893 20.0391 21.5 19.5304 21.5 19C21.5 18.4696 21.2893 17.9609 20.9142 17.5858C20.5391 17.2107 20.0304 17 19.5 17C18.9696 17 18.4609 17.2107 18.0858 17.5858C17.7107 17.9609 17.5 18.4696 17.5 19Z" stroke="black" stroke-width="2" stroke-linecap="round" stroke-linejoin="round"/>
<path d="M9.5 19C9.5 21.6522 10.5536 24.1957 12.4289 26.0711C14.3043 27.9464 16.8478 29 19.5 29C22.1522 29 24.6957 27.9464 26.5711 26.0711C28.4464 24.1957 29.5 21.6522 29.5 19C29.5 16.3478 28.4464 13.8043 26.5711 11.9289C24.6957 10.0536 22.1522 9 19.5 9C16.8478 9 14.3043 10.0536 12.4289 11.9289C10.5536 13.8043 9.5 16.3478 9.5 19Z" stroke="black" stroke-width="2" stroke-linecap="round" stroke-linejoin="round"/>
<path d="M1.5 19C1.5 21.3638 1.96558 23.7044 2.87017 25.8883C3.77475 28.0722 5.10062 30.0565 6.77208 31.7279C8.44353 33.3994 10.4278 34.7252 12.6117 35.6298C14.7956 36.5344 17.1362 37 19.5 37C21.8638 37 24.2044 36.5344 26.3883 35.6298C28.5722 34.7252 30.5565 33.3994 32.2279 31.7279C33.8994 30.0565 35.2252 28.0722 36.1298 25.8883C37.0344 23.7044 37.5 21.3638 37.5 19C37.5 16.6362 37.0344 14.2956 36.1298 12.1117C35.2252 9.92784 33.8994 7.94353 32.2279 6.27208C30.5565 4.60062 28.5722 3.27475 26.3883 2.37017C24.2044 1.46558 21.8638 1 19.5 1C17.1362 1 14.7956 1.46558 12.6117 2.37017C10.4278 3.27475 8.44353 4.60062 6.77208 6.27208C5.10062 7.94353 3.77475 9.92784 2.87017 12.1117C1.96558 14.2956 1.5 16.6362 1.5 19Z" stroke="black" stroke-width="2" stroke-linecap="round" stroke-linejoin="round"/>
</svg>
