<svg width="18" height="16" viewBox="0 0 18 16" fill="none" xmlns="http://www.w3.org/2000/svg">
<path d="M1.50398 15.8642L13.504 8.86419C13.6551 8.77616 13.7804 8.65005 13.8675 8.49844C13.9546 8.34684 14.0005 8.17504 14.0005 8.00019C14.0005 7.82534 13.9546 7.65354 13.8675 7.50194C13.7804 7.35034 13.6551 7.22423 13.504 7.13619L1.50398 0.13619C1.35201 0.0475087 1.17933 0.000498255 1.00338 -9.87607e-05C0.827424 -0.000695776 0.654426 0.0451426 0.501855 0.132789C0.349285 0.220436 0.222543 0.346788 0.134424 0.499086C0.0463041 0.651384 -6.92451e-05 0.824236 -1.77621e-05 1.00019L-1.8986e-05 15.0002C-7.04998e-05 15.1761 0.0463029 15.349 0.134422 15.5013C0.222542 15.6536 0.349283 15.7799 0.501854 15.8676C0.654425 15.9552 0.827423 16.0011 1.00338 16.0005C1.17933 15.9999 1.35201 15.9529 1.50398 15.8642Z" fill="#343434"/>
<path d="M17 16.0002C16.7551 16.0002 16.5187 15.9102 16.3356 15.7475C16.1526 15.5847 16.0357 15.3604 16.007 15.1172L16 15.0002L16 1.00019C16.0003 0.745311 16.0979 0.500159 16.2728 0.314823C16.4478 0.129487 16.687 0.0179566 16.9414 0.00301924C17.1958 -0.0119172 17.4464 0.0708646 17.6418 0.234455C17.8373 0.398046 17.9629 0.630095 17.993 0.88319L18 1.00019L18 15.0002C18 15.2654 17.8946 15.5198 17.7071 15.7073C17.5196 15.8948 17.2652 16.0002 17 16.0002Z" fill="#343434"/>
<path d="M1.50398 15.8642L13.504 8.86419C13.6551 8.77616 13.7804 8.65005 13.8675 8.49844C13.9546 8.34684 14.0005 8.17504 14.0005 8.00019C14.0005 7.82534 13.9546 7.65354 13.8675 7.50194C13.7804 7.35034 13.6551 7.22423 13.504 7.13619L1.50398 0.13619C1.35201 0.0475087 1.17933 0.000498255 1.00338 -9.87607e-05C0.827424 -0.000695776 0.654426 0.0451426 0.501855 0.132789C0.349285 0.220436 0.222543 0.346788 0.134424 0.499086C0.0463041 0.651384 -6.92451e-05 0.824236 -1.77621e-05 1.00019L-1.8986e-05 15.0002C-7.04998e-05 15.1761 0.0463029 15.349 0.134422 15.5013C0.222542 15.6536 0.349283 15.7799 0.501854 15.8676C0.654425 15.9552 0.827423 16.0011 1.00338 16.0005C1.17933 15.9999 1.35201 15.9529 1.50398 15.8642Z" stroke="#343434"/>
<path d="M17 16.0002C16.7551 16.0002 16.5187 15.9102 16.3356 15.7475C16.1526 15.5847 16.0357 15.3604 16.007 15.1172L16 15.0002L16 1.00019C16.0003 0.745311 16.0979 0.500159 16.2728 0.314823C16.4478 0.129487 16.687 0.0179566 16.9414 0.00301924C17.1958 -0.0119172 17.4464 0.0708646 17.6418 0.234455C17.8373 0.398046 17.9629 0.630095 17.993 0.88319L18 1.00019L18 15.0002C18 15.2654 17.8946 15.5198 17.7071 15.7073C17.5196 15.8948 17.2652 16.0002 17 16.0002Z" stroke="#343434"/>
</svg>
