<svg width="20" height="19" viewBox="0 0 20 19" fill="none" xmlns="http://www.w3.org/2000/svg">
<path d="M15.5 7L18.5 4M18.5 4L15.5 1M18.5 4H7.5C5.9087 4 4.38258 4.63214 3.25736 5.75736C2.13214 6.88258 1.5 8.4087 1.5 10C1.49895 11.4184 2.00069 12.7913 2.9161 13.8748C3.83151 14.9582 5.10133 15.6822 6.5 15.918M10.5 12V18M13.5 13.5V16.5C13.5 16.8978 13.658 17.2794 13.9393 17.5607C14.2206 17.842 14.6022 18 15 18C15.3978 18 15.7794 17.842 16.0607 17.5607C16.342 17.2794 16.5 16.8978 16.5 16.5V13.5C16.5 13.1022 16.342 12.7206 16.0607 12.4393C15.7794 12.158 15.3978 12 15 12C14.6022 12 14.2206 12.158 13.9393 12.4393C13.658 12.7206 13.5 13.1022 13.5 13.5Z" stroke="#343434" stroke-width="1.5" stroke-linecap="round" stroke-linejoin="round"/>
</svg>
