<svg width="18" height="18" viewBox="0 0 18 18" fill="none" xmlns="http://www.w3.org/2000/svg">
<path d="M13 3.07206C14.2057 3.76818 15.2088 4.76689 15.9103 5.96948C16.6117 7.17207 16.9872 8.5369 16.9996 9.92906C17.012 11.3212 16.6609 12.6925 15.9809 13.9074C15.301 15.1223 14.3157 16.1387 13.1226 16.8561C11.9295 17.5736 10.5698 17.9673 9.17794 17.9982C7.78607 18.0292 6.41021 17.6964 5.18636 17.0328C3.96251 16.3691 2.93304 15.3975 2.19971 14.2141C1.46637 13.0307 1.05457 11.6764 1.005 10.2851L1 10.0001L1.005 9.71506C1.05419 8.33581 1.45937 6.99274 2.18115 5.81639C2.90292 4.64004 3.91675 3.67043 5.12409 3.00179C6.33143 2.33315 7.69122 1.98822 9.07129 2.00053C10.4514 2.01285 11.8048 2.38198 13 3.07206ZM9 6.00006C8.73478 6.00006 8.48043 6.10542 8.29289 6.29295C8.10536 6.48049 8 6.73484 8 7.00006V10.0001L8.007 10.1171C8.03566 10.3603 8.15259 10.5846 8.33563 10.7473C8.51866 10.9101 8.75507 11 9 11.0001H11L11.117 10.9931C11.3603 10.9644 11.5845 10.8475 11.7473 10.6644C11.91 10.4814 12 10.245 12 10.0001L11.993 9.88306C11.9643 9.63981 11.8474 9.41553 11.6644 9.25277C11.4813 9.09002 11.2449 9.00009 11 9.00006H10V7.00006L9.993 6.88306C9.96434 6.63981 9.84741 6.41553 9.66437 6.25277C9.48134 6.09001 9.24493 6.00009 9 6.00006Z" fill="#45D0FF"/>
<path d="M3.41191 0.191052C3.61756 0.0383339 3.87398 -0.0296398 4.12829 0.00114929C4.38259 0.0319383 4.61538 0.159142 4.77865 0.356527C4.94191 0.553911 5.02321 0.806424 5.00577 1.06199C4.98833 1.31755 4.87348 1.55668 4.68491 1.73005L4.58791 1.81005L1.83791 3.81005C1.63233 3.96517 1.37482 4.03499 1.11904 4.00497C0.863262 3.97496 0.628922 3.84741 0.464839 3.64892C0.300755 3.45042 0.219579 3.19627 0.238221 2.93941C0.256862 2.68255 0.373883 2.44278 0.564907 2.27005L0.661907 2.19005L3.41191 0.191052Z" fill="#45D0FF"/>
<path d="M13.191 0.412056C13.3342 0.215082 13.5444 0.0771403 13.7821 0.0241151C14.0198 -0.02891 14.2686 0.00662658 14.482 0.124056L14.588 0.191056L17.338 2.19106C17.5437 2.34064 17.6846 2.56296 17.7322 2.81278C17.7797 3.06261 17.7303 3.32117 17.594 3.53585C17.4577 3.75053 17.2447 3.90521 16.9983 3.96841C16.752 4.03161 16.4908 3.99859 16.268 3.87606L16.162 3.80906L13.412 1.80906C13.3058 1.73177 13.2159 1.63434 13.1474 1.5223C13.0789 1.41027 13.0331 1.28584 13.0127 1.15612C12.9922 1.0264 12.9976 0.893919 13.0283 0.766253C13.0591 0.638586 13.1137 0.51823 13.191 0.412056Z" fill="#45D0FF"/>
<path d="M13 3.07206C14.2057 3.76818 15.2088 4.76689 15.9103 5.96948C16.6117 7.17207 16.9872 8.5369 16.9996 9.92906C17.012 11.3212 16.6609 12.6925 15.9809 13.9074C15.301 15.1223 14.3157 16.1387 13.1226 16.8561C11.9295 17.5736 10.5698 17.9673 9.17794 17.9982C7.78607 18.0292 6.41021 17.6964 5.18636 17.0328C3.96251 16.3691 2.93304 15.3975 2.19971 14.2141C1.46637 13.0307 1.05457 11.6764 1.005 10.2851L1 10.0001L1.005 9.71506C1.05419 8.33581 1.45937 6.99274 2.18115 5.81639C2.90292 4.64004 3.91675 3.67043 5.12409 3.00179C6.33143 2.33315 7.69122 1.98822 9.07129 2.00053C10.4514 2.01285 11.8048 2.38198 13 3.07206ZM9 6.00006C8.73478 6.00006 8.48043 6.10542 8.29289 6.29295C8.10536 6.48049 8 6.73484 8 7.00006V10.0001L8.007 10.1171C8.03566 10.3603 8.15259 10.5846 8.33563 10.7473C8.51866 10.9101 8.75507 11 9 11.0001H11L11.117 10.9931C11.3603 10.9644 11.5845 10.8475 11.7473 10.6644C11.91 10.4814 12 10.245 12 10.0001L11.993 9.88306C11.9643 9.63981 11.8474 9.41553 11.6644 9.25277C11.4813 9.09002 11.2449 9.00009 11 9.00006H10V7.00006L9.993 6.88306C9.96434 6.63981 9.84741 6.41553 9.66437 6.25277C9.48134 6.09001 9.24493 6.00009 9 6.00006Z" stroke="#45D0FF"/>
<path d="M3.41191 0.191052C3.61756 0.0383339 3.87398 -0.0296398 4.12829 0.00114929C4.38259 0.0319383 4.61538 0.159142 4.77865 0.356527C4.94191 0.553911 5.02321 0.806424 5.00577 1.06199C4.98833 1.31755 4.87348 1.55668 4.68491 1.73005L4.58791 1.81005L1.83791 3.81005C1.63233 3.96517 1.37482 4.03499 1.11904 4.00497C0.863262 3.97496 0.628922 3.84741 0.464839 3.64892C0.300755 3.45042 0.219579 3.19627 0.238221 2.93941C0.256862 2.68255 0.373883 2.44278 0.564907 2.27005L0.661907 2.19005L3.41191 0.191052Z" stroke="#45D0FF"/>
<path d="M13.191 0.412056C13.3342 0.215082 13.5444 0.0771403 13.7821 0.0241151C14.0198 -0.02891 14.2686 0.00662658 14.482 0.124056L14.588 0.191056L17.338 2.19106C17.5437 2.34064 17.6846 2.56296 17.7322 2.81278C17.7797 3.06261 17.7303 3.32117 17.594 3.53585C17.4577 3.75053 17.2447 3.90521 16.9983 3.96841C16.752 4.03161 16.4908 3.99859 16.268 3.87606L16.162 3.80906L13.412 1.80906C13.3058 1.73177 13.2159 1.63434 13.1474 1.5223C13.0789 1.41027 13.0331 1.28584 13.0127 1.15612C12.9922 1.0264 12.9976 0.893919 13.0283 0.766253C13.0591 0.638586 13.1137 0.51823 13.191 0.412056Z" stroke="#45D0FF"/>
</svg>
