<svg width="22" height="18" viewBox="0 0 22 18" fill="none" xmlns="http://www.w3.org/2000/svg">
<path d="M17.6464 14.5248C18.5746 14.5248 19.4649 14.1561 20.1212 13.4997C20.7776 12.8433 21.1464 11.9531 21.1464 11.0248C21.1464 10.0966 20.7776 9.20633 20.1212 8.54995C19.4649 7.89357 18.5746 7.52482 17.6464 7.52482H16.6464C17.0434 5.75682 16.3614 3.93182 14.8584 2.73782C13.3554 1.54482 11.2584 1.16282 9.35837 1.73782C7.45837 2.31282 6.04337 3.75682 5.64637 5.52482C3.44737 5.43682 1.49137 6.85082 0.98037 8.89782C0.46837 10.9448 1.54437 13.0518 3.54637 13.9248M8.64661 11.5248V9.52483C8.64661 8.99439 8.85732 8.48569 9.23239 8.11061C9.60747 7.73554 10.1162 7.52483 10.6466 7.52483C11.177 7.52483 11.6857 7.73554 12.0608 8.11061C12.4359 8.48569 12.6466 8.99439 12.6466 9.52483V11.5248M6.64661 12.5248C6.64661 12.2596 6.75196 12.0053 6.9395 11.8177C7.12704 11.6302 7.38139 11.5248 7.64661 11.5248H13.6466C13.9118 11.5248 14.1662 11.6302 14.3537 11.8177C14.5412 12.0053 14.6466 12.2596 14.6466 12.5248V15.5248C14.6466 15.79 14.5412 16.0444 14.3537 16.2319C14.1662 16.4195 13.9118 16.5248 13.6466 16.5248H7.64661C7.38139 16.5248 7.12704 16.4195 6.9395 16.2319C6.75196 16.0444 6.64661 15.79 6.64661 15.5248V12.5248Z" stroke="#343434" stroke-width="1.5" stroke-linecap="round" stroke-linejoin="round"/>
</svg>
