<svg width="8" height="20" viewBox="0 0 8 20" fill="none" xmlns="http://www.w3.org/2000/svg">
<path d="M1.17175 17C1.35509 17.5186 1.67746 17.9767 2.10362 18.3244C2.52978 18.6722 3.04333 18.896 3.58813 18.9716C4.13293 19.0471 4.68802 18.9714 5.19271 18.7528C5.6974 18.5342 6.13227 18.181 6.44979 17.7319C6.76731 17.2828 6.95526 16.755 6.99308 16.2063C7.0309 15.6576 6.91715 15.109 6.66425 14.6206C6.41136 14.1322 6.02906 13.7227 5.55914 13.4369C5.08922 13.1511 4.54977 12.9999 3.99975 13M3.99975 13C3.2041 13 2.44117 12.6839 1.87856 12.1213C1.31595 11.5587 0.999878 10.7956 0.999878 10C0.999878 9.20435 1.31595 8.44129 1.87856 7.87868C2.44117 7.31607 3.20412 7 3.99977 7M3.99975 13C4.7954 13 5.55859 12.6839 6.1212 12.1213C6.68381 11.5587 6.99988 10.7956 6.99988 10C6.99988 9.20435 6.68381 8.44129 6.1212 7.87868C5.55859 7.31607 4.79542 7 3.99977 7M6.82977 3C6.64646 2.48152 6.32416 2.02341 5.8981 1.67571C5.47203 1.32802 4.95859 1.10413 4.41389 1.0285C3.86918 0.952879 3.31417 1.02843 2.8095 1.24691C2.30483 1.46539 1.86993 1.81838 1.55231 2.26731C1.23469 2.71624 1.04658 3.24384 1.00853 3.79245C0.970486 4.34106 1.08397 4.88958 1.33658 5.37806C1.58919 5.86653 1.97121 6.27618 2.44089 6.56222C2.91057 6.84827 3.44984 6.99971 3.99977 7" stroke="#343434" stroke-width="1.5" stroke-linecap="round" stroke-linejoin="round"/>
</svg>
