<svg width="21" height="20" viewBox="0 0 21 20" fill="none" xmlns="http://www.w3.org/2000/svg">
<path d="M8.825 2.317C9.251 0.561 11.749 0.561 12.175 2.317C12.2389 2.5808 12.3642 2.82578 12.5407 3.032C12.7172 3.23822 12.9399 3.39985 13.1907 3.50375C13.4414 3.60764 13.7132 3.65085 13.9838 3.62987C14.2544 3.60889 14.5162 3.5243 14.748 3.383C16.291 2.443 18.058 4.209 17.118 5.753C16.9769 5.98466 16.8924 6.24634 16.8715 6.51677C16.8506 6.78721 16.8938 7.05877 16.9975 7.30938C17.1013 7.55999 17.2627 7.78258 17.4687 7.95905C17.6747 8.13553 17.9194 8.26091 18.183 8.325C19.939 8.751 19.939 11.249 18.183 11.675C17.9192 11.7389 17.6742 11.8642 17.468 12.0407C17.2618 12.2172 17.1001 12.4399 16.9963 12.6907C16.8924 12.9414 16.8491 13.2132 16.8701 13.4838C16.8911 13.7544 16.9757 14.0162 17.117 14.248C18.057 15.791 16.291 17.558 14.747 16.618C14.5153 16.4769 14.2537 16.3924 13.9832 16.3715C13.7128 16.3506 13.4412 16.3938 13.1906 16.4975C12.94 16.6013 12.7174 16.7627 12.5409 16.9687C12.3645 17.1747 12.2391 17.4194 12.175 17.683C11.749 19.439 9.251 19.439 8.825 17.683C8.76108 17.4192 8.63578 17.1742 8.45929 16.968C8.2828 16.7618 8.06011 16.6001 7.80935 16.4963C7.55859 16.3924 7.28683 16.3491 7.01621 16.3701C6.74559 16.3911 6.48375 16.4757 6.252 16.617C4.709 17.557 2.942 15.791 3.882 14.247C4.0231 14.0153 4.10755 13.7537 4.12848 13.4832C4.14942 13.2128 4.10624 12.9412 4.00247 12.6906C3.8987 12.44 3.73726 12.2174 3.53127 12.0409C3.32529 11.8645 3.08056 11.7391 2.817 11.675C1.061 11.249 1.061 8.751 2.817 8.325C3.0808 8.26108 3.32578 8.13578 3.532 7.95929C3.73822 7.7828 3.89985 7.56011 4.00375 7.30935C4.10764 7.05859 4.15085 6.78683 4.12987 6.51621C4.10889 6.24559 4.0243 5.98375 3.883 5.752C2.943 4.209 4.709 2.442 6.253 3.382C7.253 3.99 8.549 3.452 8.825 2.317Z" stroke="#343434" stroke-width="1.5" stroke-linecap="round" stroke-linejoin="round"/>
<path d="M7.5 10C7.5 10.7956 7.81607 11.5587 8.37868 12.1213C8.94129 12.6839 9.70435 13 10.5 13C11.2956 13 12.0587 12.6839 12.6213 12.1213C13.1839 11.5587 13.5 10.7956 13.5 10C13.5 9.20435 13.1839 8.44129 12.6213 7.87868C12.0587 7.31607 11.2956 7 10.5 7C9.70435 7 8.94129 7.31607 8.37868 7.87868C7.81607 8.44129 7.5 9.20435 7.5 10Z" stroke="#343434" stroke-width="1.5" stroke-linecap="round" stroke-linejoin="round"/>
</svg>
