<svg width="21" height="18" viewBox="0 0 21 18" fill="none" xmlns="http://www.w3.org/2000/svg">
<path d="M7.5 16V10C7.5 9.73478 7.39464 9.48043 7.20711 9.29289C7.01957 9.10536 6.76522 9 6.5 9H2.5C2.23478 9 1.98043 9.10536 1.79289 9.29289C1.60536 9.48043 1.5 9.73478 1.5 10V16C1.5 16.2652 1.60536 16.5196 1.79289 16.7071C1.98043 16.8946 2.23478 17 2.5 17M7.5 16C7.5 16.2652 7.39464 16.5196 7.20711 16.7071C7.01957 16.8946 6.76522 17 6.5 17H2.5M7.5 16C7.5 16.2652 7.60536 16.5196 7.79289 16.7071C7.98043 16.8946 8.23478 17 8.5 17H12.5C12.7652 17 13.0196 16.8946 13.2071 16.7071C13.3946 16.5196 13.5 16.2652 13.5 16M7.5 16V6C7.5 5.73478 7.60536 5.48043 7.79289 5.29289C7.98043 5.10536 8.23478 5 8.5 5H12.5C12.7652 5 13.0196 5.10536 13.2071 5.29289C13.3946 5.48043 13.5 5.73478 13.5 6V16M2.5 17H16.5M13.5 16C13.5 16.2652 13.6054 16.5196 13.7929 16.7071C13.9804 16.8946 14.2348 17 14.5 17H18.5C18.7652 17 19.0196 16.8946 19.2071 16.7071C19.3946 16.5196 19.5 16.2652 19.5 16V2C19.5 1.73478 19.3946 1.48043 19.2071 1.29289C19.0196 1.10536 18.7652 1 18.5 1H14.5C14.2348 1 13.9804 1.10536 13.7929 1.29289C13.6054 1.48043 13.5 1.73478 13.5 2V16Z" stroke="#343434" stroke-width="1.5" stroke-linecap="round" stroke-linejoin="round"/>
</svg>
