<svg width="21" height="20" viewBox="0 0 21 20" fill="none" xmlns="http://www.w3.org/2000/svg">
<path d="M13.5 10.8996C14.5531 11.1139 15.6472 10.9832 16.6202 10.5269C17.5932 10.0705 18.3932 9.31286 18.9018 8.36614C19.4103 7.41942 19.6003 6.33404 19.4436 5.27086C19.2869 4.20767 18.7918 3.22328 18.0317 2.46357C17.2716 1.70385 16.287 1.20926 15.2237 1.05308C14.1604 0.89691 13.0751 1.08747 12.1287 1.59652C11.1822 2.10557 10.425 2.90601 9.96913 3.87922C9.5133 4.85243 9.38317 5.94661 9.59801 6.99958M13.5 10.8996L9.59801 6.99958M13.5 10.8996L4.91209 18.4146C4.53681 18.7895 4.02797 18.9999 3.49753 18.9996C3.23488 18.9995 2.97482 18.9476 2.73222 18.847C2.48962 18.7463 2.26921 18.5989 2.08359 18.4131C1.89796 18.2273 1.75076 18.0067 1.65037 17.764C1.54999 17.5213 1.4984 17.2612 1.49854 16.9985C1.49882 16.4681 1.70981 15.9595 2.08509 15.5846L9.59801 6.99958" stroke="#343434" stroke-width="1.5" stroke-linecap="round" stroke-linejoin="round"/>
</svg>
