<svg width="18" height="18" viewBox="0 0 18 18" fill="none" xmlns="http://www.w3.org/2000/svg">
<path d="M6.5 3.5H3.5C2.96957 3.5 2.46086 3.71071 2.08579 4.08579C1.71071 4.46086 1.5 4.96957 1.5 5.5V14.5C1.5 15.0304 1.71071 15.5391 2.08579 15.9142C2.46086 16.2893 2.96957 16.5 3.5 16.5H12.5C13.0304 16.5 13.5391 16.2893 13.9142 15.9142C14.2893 15.5391 14.5 15.0304 14.5 14.5V11.5M10.5 4.5C10.5 5.29565 10.8161 6.05871 11.3787 6.62132C11.9413 7.18393 12.7044 7.5 13.5 7.5C14.2956 7.5 15.0587 7.18393 15.6213 6.62132C16.1839 6.05871 16.5 5.29565 16.5 4.5C16.5 3.70435 16.1839 2.94129 15.6213 2.37868C15.0587 1.81607 14.2956 1.5 13.5 1.5C12.7044 1.5 11.9413 1.81607 11.3787 2.37868C10.8161 2.94129 10.5 3.70435 10.5 4.5Z" stroke="#343434" stroke-width="1.5" stroke-linecap="round" stroke-linejoin="round"/>
</svg>
