<svg width="14" height="14" viewBox="0 0 14 14" fill="none" xmlns="http://www.w3.org/2000/svg">
<path d="M8.5 1V4H4V1M2.5 1H10L13 4V11.5C13 11.8978 12.842 12.2794 12.5607 12.5607C12.2794 12.842 11.8978 13 11.5 13H2.5C2.10218 13 1.72064 12.842 1.43934 12.5607C1.15804 12.2794 1 11.8978 1 11.5V2.5C1 2.10218 1.15804 1.72064 1.43934 1.43934C1.72064 1.15804 2.10218 1 2.5 1ZM5.5 8.5C5.5 8.89782 5.65804 9.27936 5.93934 9.56066C6.22064 9.84196 6.60218 10 7 10C7.39782 10 7.77936 9.84196 8.06066 9.56066C8.34196 9.27936 8.5 8.89782 8.5 8.5C8.5 8.10218 8.34196 7.72064 8.06066 7.43934C7.77936 7.15804 7.39782 7 7 7C6.60218 7 6.22064 7.15804 5.93934 7.43934C5.65804 7.72064 5.5 8.10218 5.5 8.5Z" stroke="#343434" stroke-linecap="round" stroke-linejoin="round"/>
</svg>
