<svg width="31" height="48" viewBox="0 0 31 48" fill="none" xmlns="http://www.w3.org/2000/svg">
<path d="M15.5 -0.0300293C9.68 -0.0300293 4.91 4.58247 4.91 10.29V22.35C4.91 28.0575 9.68 32.67 15.5 32.67C21.32 32.67 26.09 28.0575 26.09 22.35V10.29C26.09 4.58247 21.32 -0.0300293 15.5 -0.0300293ZM15.5 1.94997C20.285 1.94997 24.11 5.67747 24.11 10.29V10.56H18.86C18.83 10.56 18.8 10.56 18.77 10.56C18.2413 10.5862 17.8288 11.0362 17.855 11.565C17.8813 12.0937 18.3313 12.5062 18.86 12.48H24.11V14.4H18.86C18.83 14.4 18.8 14.4 18.77 14.4C18.2413 14.4262 17.8288 14.8762 17.855 15.405C17.8813 15.9337 18.3313 16.3462 18.86 16.32H24.11V18.24H18.86C18.83 18.24 18.8 18.24 18.77 18.24C18.2413 18.2662 17.8288 18.7162 17.855 19.245C17.8813 19.7737 18.3313 20.1862 18.86 20.16H24.11V22.35C24.11 26.9625 20.285 30.69 15.5 30.69C10.715 30.69 6.89 26.9625 6.89 22.35V20.16H12.14C12.485 20.1637 12.8075 19.9837 12.9838 19.6837C13.1563 19.3837 13.1563 19.0162 12.9838 18.7162C12.8075 18.4162 12.485 18.2362 12.14 18.24H6.89V16.32H12.14C12.485 16.3237 12.8075 16.1437 12.9838 15.8437C13.1563 15.5437 13.1563 15.1762 12.9838 14.8762C12.8075 14.5762 12.485 14.3962 12.14 14.4H6.89V12.48H12.14C12.485 12.4837 12.8075 12.3037 12.9838 12.0037C13.1563 11.7037 13.1563 11.3362 12.9838 11.0362C12.8075 10.7362 12.485 10.5562 12.14 10.56H6.89V10.29C6.89 5.67747 10.715 1.94997 15.5 1.94997ZM0.920004 16.44C0.526254 16.5225 0.248754 16.8787 0.260004 17.28V22.08C0.260004 29.475 5.585 35.6812 12.59 37.05V43.2H6.35C4.52375 43.2 3.02 44.7075 3.02 46.53V47.94H27.86V46.53C27.86 44.7075 26.3563 43.2 24.53 43.2H18.41V37.05C25.415 35.6812 30.74 29.475 30.74 22.08V17.28C30.74 16.815 30.365 16.44 29.9 16.44C29.435 16.44 29.06 16.815 29.06 17.28V22.08C29.06 29.5687 22.9888 35.64 15.5 35.64C8.01125 35.64 1.94 29.5687 1.94 22.08V17.28C1.94375 17.04 1.8425 16.8112 1.66625 16.65C1.48625 16.4887 1.25 16.41 1.01 16.44C0.980004 16.44 0.950004 16.44 0.920004 16.44ZM14.57 37.26C14.8775 37.2787 15.1888 37.32 15.5 37.32C15.8113 37.32 16.1225 37.2787 16.43 37.26V43.17H14.57V37.26ZM6.35 45.12H13.34C13.4188 45.1387 13.4975 45.15 13.58 45.15H17.42C17.4913 45.1462 17.5625 45.1387 17.63 45.12H24.53C25.145 45.12 25.5538 45.525 25.76 46.05H5.12C5.32625 45.525 5.73125 45.12 6.35 45.12Z" fill="black"/>
</svg>
