<svg width="17" height="20" viewBox="0 0 17 20" fill="none" xmlns="http://www.w3.org/2000/svg">
<path d="M4.49985e-08 1.11139V18.8886C-5.67715e-05 19.0863 0.0536898 19.2804 0.155694 19.451C0.257699 19.6215 0.404267 19.7623 0.580277 19.8587C0.756286 19.9552 0.955363 20.0039 1.15697 19.9998C1.35857 19.9956 1.5554 19.9388 1.72715 19.8352L16.46 10.9466C16.625 10.8472 16.7613 10.708 16.8558 10.5423C16.9504 10.3766 17 10.1899 17 10C17 9.81013 16.9504 9.62342 16.8558 9.4577C16.7613 9.29198 16.625 9.15277 16.46 9.05336L1.72715 0.164752C1.5554 0.0611609 1.35857 0.00437111 1.15697 0.000242388C0.955363 -0.00388634 0.756286 0.0447955 0.580277 0.141265C0.404267 0.237735 0.257699 0.378498 0.155694 0.549033C0.0536898 0.719567 -5.67715e-05 0.913696 4.49985e-08 1.11139Z" fill="white"/>
</svg>
