<svg width="49" height="48" viewBox="0 0 49 48" fill="none" xmlns="http://www.w3.org/2000/svg">
<g clip-path="url(#clip0_4_465)">
<path d="M24.5 0.959961C24.3065 0.960129 24.1176 1.01876 23.958 1.12817C23.7984 1.23758 23.6756 1.39266 23.6056 1.57309L17.6863 16.8337L1.41125 17.6643C1.21752 17.6741 1.0313 17.7424 0.87713 17.8601C0.722955 17.9778 0.608056 18.1395 0.547567 18.3238C0.487078 18.5081 0.483837 18.7064 0.538271 18.8926C0.592704 19.0788 0.702259 19.2441 0.852504 19.3668L13.5256 29.7281L9.36313 45.45C9.31344 45.6371 9.3215 45.8349 9.38626 46.0174C9.45103 46.1999 9.56946 46.3586 9.72601 46.4725C9.88257 46.5865 10.0699 46.6505 10.2635 46.656C10.4571 46.6616 10.6478 46.6085 10.8106 46.5037L24.5 37.7175L38.1894 46.5037C38.3522 46.6085 38.5429 46.6616 38.7365 46.656C38.9301 46.6505 39.1174 46.5865 39.274 46.4725C39.4305 46.3586 39.549 46.1999 39.6137 46.0174C39.6785 45.8349 39.6866 45.6371 39.6369 45.45L35.4744 29.7281L48.1475 19.3668C48.2977 19.2441 48.4073 19.0788 48.4617 18.8926C48.5162 18.7064 48.5129 18.5081 48.4524 18.3238C48.392 18.1395 48.2771 17.9778 48.1229 17.8601C47.9687 17.7424 47.7825 17.6741 47.5888 17.6643L31.3138 16.8337L25.3944 1.57309C25.3245 1.39266 25.2016 1.23758 25.042 1.12817C24.8824 1.01876 24.6935 0.960129 24.5 0.959961ZM24.5 4.57309L29.7481 18.1068C29.8153 18.2797 29.931 18.4294 30.0814 18.5379C30.2318 18.6463 30.4104 18.7089 30.5956 18.7181L45.005 19.455L33.7813 28.6331C33.6387 28.7497 33.5326 28.9048 33.4758 29.08C33.4189 29.2552 33.4137 29.4431 33.4606 29.6212L37.1488 43.5543L25.0194 35.7675C24.8645 35.6678 24.6842 35.6149 24.5 35.6149C24.3158 35.6149 24.1355 35.6678 23.9806 35.7675L11.8513 43.5543L15.5394 29.6212C15.5864 29.4431 15.5811 29.2552 15.5243 29.08C15.4674 28.9048 15.3614 28.7497 15.2188 28.6331L3.995 19.455L18.4044 18.7181C18.5896 18.7089 18.7682 18.6463 18.9186 18.5379C19.069 18.4294 19.1847 18.2797 19.2519 18.1068L24.5 4.57309Z" fill="black"/>
</g>
<defs>
<clipPath id="clip0_4_465">
<rect width="48" height="48" fill="white" transform="translate(0.5)"/>
</clipPath>
</defs>
</svg>
