<svg width="45" height="42" viewBox="0 0 45 42" fill="none" xmlns="http://www.w3.org/2000/svg">
<path d="M14.986 12.68L2.22602 14.53L2.00002 14.576C1.6579 14.6668 1.34601 14.8468 1.0962 15.0976C0.846399 15.3484 0.667627 15.6609 0.578144 16.0034C0.488662 16.3459 0.491675 16.706 0.586875 17.0469C0.682076 17.3878 0.866053 17.6974 1.12002 17.944L10.364 26.942L8.18402 39.652L8.15802 39.872C8.13708 40.2258 8.21055 40.5789 8.37092 40.895C8.53129 41.2111 8.77279 41.4789 9.07069 41.671C9.36859 41.8631 9.7122 41.9725 10.0663 41.9882C10.4204 42.0038 10.7723 41.9251 11.086 41.76L22.498 35.76L33.884 41.76L34.084 41.852C34.4141 41.982 34.7729 42.0219 35.1235 41.9675C35.4741 41.9131 35.804 41.7664 36.0792 41.5425C36.3544 41.3186 36.5651 41.0255 36.6897 40.6932C36.8143 40.361 36.8482 40.0016 36.788 39.652L34.606 26.942L43.854 17.942L44.01 17.772C44.2329 17.4975 44.379 17.1689 44.4335 16.8196C44.4879 16.4702 44.4489 16.1127 44.3202 15.7834C44.1915 15.4541 43.9779 15.1648 43.701 14.945C43.4241 14.7252 43.0939 14.5826 42.744 14.532L29.984 12.68L24.28 1.11997C24.115 0.785036 23.8595 0.502997 23.5424 0.305776C23.2253 0.108555 22.8594 0.00402832 22.486 0.00402832C22.1126 0.00402832 21.7467 0.108555 21.4296 0.305776C21.1126 0.502997 20.8571 0.785036 20.692 1.11997L14.986 12.68Z" fill="black"/>
</svg>
