<svg width="45" height="42" viewBox="0 0 45 42" fill="none" xmlns="http://www.w3.org/2000/svg">
<path d="M22.5001 -3.25325e-05C22.8261 0.00120683 23.1468 0.082682 23.4338 0.237201C23.7209 0.39172 23.9655 0.614531 24.1461 0.885967L24.2801 1.11797L29.9841 12.68L42.7441 14.53C44.2261 14.746 44.9041 16.41 44.1501 17.582L44.0101 17.772L43.8541 17.944L34.6061 26.942L36.7861 39.652C36.8428 39.9835 36.8152 40.324 36.7056 40.642C36.5961 40.9601 36.4081 41.2454 36.1592 41.4716C35.9103 41.6978 35.6083 41.8577 35.2813 41.9364C34.9543 42.0151 34.6127 42.0101 34.2881 41.922L34.0861 41.852L33.8841 41.76L22.4981 35.76L11.0861 41.76C10.8761 41.87 10.6621 41.94 10.4461 41.972L10.2341 41.992C9.95493 42.0022 9.67674 41.954 9.4173 41.8505C9.15787 41.7469 8.92292 41.5904 8.72749 41.3908C8.53206 41.1912 8.38047 40.9531 8.28241 40.6915C8.18436 40.43 8.142 40.1508 8.15806 39.872L8.18406 39.652L10.3641 26.942L1.11806 17.942C0.878968 17.7091 0.701893 17.4201 0.602942 17.1014C0.503992 16.7826 0.486307 16.4442 0.551497 16.1168C0.616686 15.7895 0.762681 15.4836 0.976202 15.2271C1.18972 14.9706 1.46399 14.7715 1.77406 14.648L2.00006 14.576L2.22806 14.53L14.9861 12.68L20.6921 1.11997C20.8512 0.777188 21.1072 0.488486 21.4285 0.289465C21.7498 0.0904439 22.1223 -0.010192 22.5001 -3.25325e-05ZM22.5001 6.54797V31.5C22.6611 31.5 22.8216 31.5195 22.9781 31.558L23.2081 31.63L23.4321 31.73L32.1581 36.328L30.4861 26.582C30.4036 26.1003 30.5004 25.6052 30.7581 25.19L30.8981 24.992L31.0621 24.812L38.1541 17.906L28.3721 16.49C27.8886 16.4198 27.4475 16.1751 27.1321 15.802L26.9861 15.608L26.8661 15.396L22.5001 6.54797Z" fill="black"/>
</svg>
